<?xml version="1.0" encoding="UTF-8" standalone="no"?>
<!-- Created with Inkscape (http://www.inkscape.org/) -->

<svg
   width="163.70908mm"
   height="22.563965mm"
   viewBox="0 0 163.70908 22.563965"
   version="1.1"
   id="svg1"
   xml:space="preserve"
   inkscape:version="1.3.2 (091e20ef0f, 2023-11-25, custom)"
   sodipodi:docname="page_analyzer.svg"
   xmlns:inkscape="http://www.inkscape.org/namespaces/inkscape"
   xmlns:sodipodi="http://sodipodi.sourceforge.net/DTD/sodipodi-0.dtd"
   xmlns:xlink="http://www.w3.org/1999/xlink"
   xmlns="http://www.w3.org/2000/svg"
   xmlns:svg="http://www.w3.org/2000/svg"><sodipodi:namedview
     id="namedview1"
     pagecolor="#ffffff"
     bordercolor="#000000"
     borderopacity="0.25"
     inkscape:showpageshadow="2"
     inkscape:pageopacity="0.0"
     inkscape:pagecheckerboard="0"
     inkscape:deskcolor="#d1d1d1"
     inkscape:document-units="mm"
     inkscape:zoom="2"
     inkscape:cx="297.75"
     inkscape:cy="130.25"
     inkscape:window-width="3836"
     inkscape:window-height="2077"
     inkscape:window-x="0"
     inkscape:window-y="0"
     inkscape:window-maximized="0"
     inkscape:current-layer="layer1"
     showguides="true" /><defs
     id="defs1"><linearGradient
   id="linearGradient55"
   inkscape:collect="always"><stop
     style="stop-color:#28a745;stop-opacity:1"
     offset="0"
     id="stop55" /><stop
     style="stop-color:#34d058;stop-opacity:1"
     offset="1"
     id="stop56" /></linearGradient><linearGradient
   id="linearGradient53"
   inkscape:collect="always"><stop
     style="stop-color:#24292e;stop-opacity:1"
     offset="0"
     id="stop53" /><stop
     style="stop-color:#444d56;stop-opacity:1"
     offset="1"
     id="stop54" /></linearGradient><linearGradient
   id="workflow-fill"
   x1="22.135944"
   y1="0"
   x2="22.135944"
   y2="44.271889"
   gradientTransform="matrix(0.58568018,0,0,0.11952656,36.17348,205.22045)"
   gradientUnits="userSpaceOnUse"><stop
     stop-color="#444D56"
     offset="0%"
     id="stop1" /><stop
     stop-color="#24292E"
     offset="100%"
     id="stop2" /></linearGradient><linearGradient
   id="state-fill"
   x1="15.811388"
   y1="0"
   x2="15.811388"
   y2="31.622778"
   gradientTransform="matrix(0.41834297,0,0,0.16733719,62.102646,205.22045)"
   gradientUnits="userSpaceOnUse"><stop
     stop-color="#34D058"
     offset="0%"
     id="stop3" /><stop
     stop-color="#28A745"
     offset="100%"
     id="stop4" /></linearGradient>/&gt;<linearGradient
   inkscape:collect="always"
   xlink:href="#linearGradient53"
   id="linearGradient54"
   x1="54.166428"
   y1="231.06589"
   x2="54.166428"
   y2="221.75243"
   gradientUnits="userSpaceOnUse" /><linearGradient
   inkscape:collect="always"
   xlink:href="#linearGradient55"
   id="linearGradient56"
   x1="94.95079"
   y1="231.06589"
   x2="94.95079"
   y2="221.75276"
   gradientUnits="userSpaceOnUse" /><filter
   inkscape:collect="always"
   style="color-interpolation-filters:sRGB"
   id="filter69"
   x="-0.019157166"
   y="-0.18280406"
   width="1.0383143"
   height="1.3656081"><feGaussianBlur
     inkscape:collect="always"
     stdDeviation="1.258531"
     id="feGaussianBlur69" /></filter></defs><g
     inkscape:label="Layer 1"
     inkscape:groupmode="layer"
     id="layer1"
     transform="translate(-316.95658,-19.651958)"><path
       id="path1"
       d=""
       style="fill:#ffffff;stroke-width:0.243655" /><g
       id="g69"
       transform="translate(293.81106,-117.56623)"><rect
         style="fill:#f9f9f9;fill-opacity:1;stroke-width:1.69709;filter:url(#filter69)"
         id="rect64"
         width="157.66812"
         height="16.523016"
         x="26.165991"
         y="140.23866"
         rx="1.7144585"
         ry="1.7144585" /><g
         id="g57"
         transform="matrix(1.7740994,0,0,1.7740994,-10.860095,-253.17218)"><rect
           style="fill:url(#linearGradient54);fill-opacity:1;stroke-width:0.956593"
           id="rect51"
           width="88.8722"
           height="9.313467"
           x="20.870255"
           y="221.75243"
           rx="0.96638238"
           ry="0.96638238" /><path
           id="rect52"
           style="fill:url(#linearGradient56);fill-opacity:1;stroke-width:0.956593"
           d="m 78.963656,221.75276 v 9.31313 h 29.812654 c 0.53537,0 0.96635,-0.43098 0.96635,-0.96635 v -7.38043 c 0,-0.53538 -0.43098,-0.96635 -0.96635,-0.96635 z" /><path
           id="path56"
           style="font-size:6.83254px;font-family:'JetBrains Mono NL';-inkscape-font-specification:'JetBrains Mono NL, Normal';text-align:center;text-anchor:middle;fill:#202428;fill-opacity:1;stroke-width:2.79591"
           d="m 23.717932,224.45692 -0.955497,3.67161 h 0.462504 l 0.241846,-0.97565 h 1.11156 l 0.241329,0.97565 h 0.457336 l -0.950329,-3.67161 z m 0.30179,0.36225 c 0.0067,0.0436 0.02512,0.13746 0.05529,0.28164 0.03018,0.14418 0.07244,0.32388 0.126091,0.53847 l 0.281636,1.13119 h -0.925525 l 0.281637,-1.13636 c 0.05365,-0.21123 0.0954,-0.38912 0.125574,-0.5333 0.03018,-0.14417 0.04859,-0.23804 0.05529,-0.28164 z m 6.040459,0.493 c -0.308475,0 -0.556374,0.0723 -0.744141,0.21652 -0.184412,0.14082 -0.285024,0.32 -0.30179,0.53795 h 0.452685 c 0.0067,-0.11398 0.06375,-0.20292 0.171049,-0.26665 0.107295,-0.0637 0.247841,-0.0956 0.422197,-0.0956 0.392297,0 0.588594,0.17918 0.588594,0.53795 v 0.21653 H 29.79353 c -0.177708,0 -0.335367,0.0368 -0.472839,0.11058 -0.137473,0.0704 -0.244309,0.16922 -0.321427,0.29663 -0.07712,0.12741 -0.115756,0.27651 -0.115756,0.44751 0,0.25818 0.0835,0.46796 0.251148,0.62891 0.167648,0.15759 0.394025,0.23667 0.679028,0.23667 0.238062,0 0.429432,-0.049 0.573608,-0.14624 0.144176,-0.10059 0.22949,-0.23621 0.256316,-0.40721 h 0.01034 v 0.50281 h 0.447518 v -1.90118 c 0,-0.28834 -0.09076,-0.51292 -0.271818,-0.67386 -0.177708,-0.16094 -0.434166,-0.24132 -0.769462,-0.24132 z m 12.070581,0 c -0.308473,0 -0.556375,0.0723 -0.744141,0.21652 -0.184396,0.14082 -0.285004,0.32 -0.30179,0.53795 h 0.452685 c 0.0067,-0.11398 0.06376,-0.20292 0.171049,-0.26665 0.107295,-0.0637 0.247843,-0.0956 0.422197,-0.0956 0.392299,0 0.588594,0.17918 0.588594,0.53795 v 0.21653 h -0.854728 c -0.177711,0 -0.33537,0.0368 -0.472839,0.11058 -0.13747,0.0704 -0.244825,0.16922 -0.321944,0.29663 -0.07712,0.12741 -0.115756,0.27702 -0.115756,0.44803 0,0.25817 0.08401,0.46744 0.251665,0.62839 0.167645,0.15759 0.394023,0.23667 0.679028,0.23667 0.238061,0 0.428914,-0.049 0.573092,-0.14624 0.144162,-0.10059 0.229475,-0.23621 0.256315,-0.40721 h 0.01034 v 0.50281 h 0.447518 v -1.90118 c 0,-0.28834 -0.09024,-0.51292 -0.271301,-0.67386 -0.177705,-0.16094 -0.434679,-0.24132 -0.769979,-0.24132 z m 9.209257,0 c -0.207887,0 -0.379029,0.0521 -0.513147,0.15606 -0.134131,0.10058 -0.212702,0.24113 -0.236162,0.42219 h -0.0052 v -0.52813 h -0.452686 v 3.67161 h 0.452686 v -0.8046 l -0.0098,-0.6289 h 0.01499 c 0.02347,0.17771 0.102043,0.31877 0.236162,0.42271 0.134118,0.10395 0.30526,0.15606 0.513147,0.15606 0.278296,0 0.499749,-0.0926 0.664042,-0.27698 0.164299,-0.18442 0.246496,-0.43594 0.246496,-0.75448 v -0.80977 c 0,-0.31854 -0.0822,-0.56825 -0.246496,-0.74931 -0.164293,-0.18441 -0.385746,-0.27646 -0.664042,-0.27646 z m 5.914367,0 c -0.335295,0 -0.603424,0.0939 -0.804602,0.28163 -0.201181,0.18776 -0.30179,0.44604 -0.30179,0.77463 v 0.75448 c 0,0.32859 0.100609,0.58686 0.30179,0.77463 0.201178,0.18777 0.469307,0.28163 0.804602,0.28163 0.318533,0 0.575505,-0.0858 0.769979,-0.25683 0.197826,-0.171 0.301549,-0.40411 0.311609,-0.69918 h -0.452685 c -0.01006,0.17436 -0.07022,0.31049 -0.180868,0.40773 -0.110647,0.0972 -0.260264,0.14572 -0.448035,0.14572 -0.197825,0 -0.356783,-0.057 -0.47749,-0.17104 -0.117355,-0.11401 -0.176216,-0.27478 -0.176216,-0.48266 v -0.75965 c 0,-0.20788 0.05886,-0.36684 0.176216,-0.47749 0.120707,-0.114 0.279665,-0.17105 0.47749,-0.17105 0.187771,0 0.337388,0.0485 0.448035,0.14573 0.110647,0.0939 0.170808,0.22951 0.180868,0.40721 h 0.452685 c -0.01006,-0.29506 -0.113783,-0.52818 -0.311609,-0.69918 -0.194474,-0.171 -0.451446,-0.25631 -0.769979,-0.25631 z m 6.156731,0 c -0.207885,0 -0.379029,0.0521 -0.513147,0.15606 -0.13413,0.10058 -0.213219,0.24113 -0.236678,0.42219 h -0.0052 v -0.52813 h -0.452686 v 3.67161 h 0.453203 v -0.8046 l -0.01034,-0.6289 h 0.01499 c 0.02347,0.1777 0.102555,0.31876 0.236678,0.42271 0.134118,0.10394 0.305262,0.15606 0.513147,0.15606 0.278296,0 0.499231,-0.0926 0.663525,-0.27698 0.164294,-0.18442 0.246497,-0.43594 0.246497,-0.75448 v -0.80977 c 0,-0.31853 -0.0822,-0.56825 -0.246497,-0.74931 -0.164294,-0.18441 -0.385229,-0.27646 -0.663525,-0.27646 z m 2.861324,0 c -0.308477,0 -0.556376,0.0718 -0.744141,0.216 -0.184398,0.14082 -0.28501,0.32052 -0.30179,0.53847 h 0.452685 c 0.0067,-0.11398 0.06375,-0.20292 0.171049,-0.26665 0.107295,-0.0637 0.247838,-0.0956 0.422197,-0.0956 0.392294,0 0.588594,0.1797 0.588594,0.53847 v 0.21601 H 66.00579 c -0.177706,0 -0.335364,0.0368 -0.472839,0.11058 -0.13747,0.0704 -0.244308,0.16922 -0.321428,0.29663 -0.07712,0.12742 -0.115755,0.27703 -0.115755,0.44803 0,0.25817 0.0835,0.46743 0.251148,0.62839 0.167649,0.15758 0.394028,0.23667 0.679028,0.23667 0.238062,0 0.429431,-0.049 0.573608,-0.14624 0.144155,-0.10059 0.22947,-0.23621 0.256316,-0.40721 h 0.01033 v 0.50281 h 0.447518 v -1.90118 c 0,-0.28834 -0.09076,-0.51291 -0.271818,-0.67386 -0.177706,-0.16094 -0.434167,-0.24132 -0.769462,-0.24132 z m -18.11104,0.01 c -0.335294,0 -0.600309,0.0975 -0.794783,0.29198 -0.194474,0.19112 -0.291455,0.46287 -0.291455,0.81493 v 0.63356 c 0,0.34871 0.09698,0.62047 0.291455,0.81493 0.197826,0.19448 0.46284,0.29146 0.794783,0.29146 0.331945,0 0.595142,-0.097 0.789616,-0.29146 0.197826,-0.19446 0.296623,-0.46622 0.296623,-0.81493 v -0.63356 c 0,-0.35206 -0.09698,-0.62381 -0.291455,-0.81493 -0.194469,-0.19448 -0.459483,-0.29198 -0.794784,-0.29198 z m -9.204089,0.005 c -0.285003,0 -0.512677,0.0656 -0.683679,0.19637 -0.171002,0.12742 -0.259944,0.29985 -0.266651,0.5178 h 0.452686 c 0.0067,-0.0972 0.05338,-0.17451 0.14056,-0.23151 0.09053,-0.057 0.209553,-0.0853 0.357084,-0.0853 h 0.236678 c 0.157592,0 0.281544,0.035 0.37207,0.10542 0.09053,0.0671 0.135909,0.15964 0.135909,0.27699 0,0.12071 -0.04719,0.21587 -0.141076,0.28629 -0.09053,0.0704 -0.21448,0.10593 -0.372071,0.10593 h -0.588594 v 0.39223 h 0.603581 c 0.174353,0 0.311787,0.0404 0.412378,0.12092 0.100591,0.0771 0.150895,0.18395 0.150895,0.32143 0,0.13076 -0.0503,0.23501 -0.150895,0.31212 -0.100591,0.0738 -0.238025,0.11059 -0.412378,0.11059 h -0.266651 c -0.164296,0 -0.294987,-0.035 -0.392224,-0.10542 -0.09388,-0.0704 -0.14056,-0.16428 -0.14056,-0.28164 h -0.452685 c 0,0.24477 0.08843,0.43925 0.266133,0.58343 0.177708,0.14083 0.417569,0.21084 0.719336,0.21084 h 0.266651 c 0.318531,0 0.570063,-0.0736 0.754476,-0.22117 0.187765,-0.15089 0.281636,-0.35211 0.281636,-0.60359 0,-0.20116 -0.05523,-0.36558 -0.165881,-0.49299 -0.110646,-0.12742 -0.266489,-0.19744 -0.467672,-0.21084 v -0.0202 c 0.16765,-0.0134 0.303267,-0.0723 0.40721,-0.17622 0.107295,-0.10729 0.160714,-0.23798 0.160714,-0.39222 0,-0.23136 -0.08843,-0.40925 -0.266134,-0.5333 -0.174358,-0.12406 -0.412402,-0.18604 -0.714168,-0.18604 z m -12.966134,0.0351 v 2.76624 h 0.452686 v -1.21181 h 1.187008 v 1.21181 h 0.452685 v -2.76624 h -0.452685 v 1.14205 h -1.187008 v -1.14205 z m 6.226494,0 -0.02997,1.54926 c -0.0034,0.31183 -0.03706,0.52783 -0.100769,0.64854 -0.06035,0.12071 -0.167707,0.18138 -0.321944,0.18138 h -0.07493 v 0.4222 h 0.100253 c 0.295061,0 0.507954,-0.0952 0.63872,-0.28629 0.130765,-0.19112 0.201297,-0.50644 0.211357,-0.94568 l 0.02532,-1.15703 h 1.000456 v 2.35386 h 0.452686 v -2.76624 z m 2.826701,0 v 2.76624 h 0.563273 l 1.151867,-2.32337 c -0.02682,0.0972 -0.04342,0.223 -0.05013,0.37724 -0.0033,0.15423 -0.0052,0.30515 -0.0052,0.45268 v 1.49345 h 0.432531 v -2.76624 h -0.563273 l -1.151867,2.31356 c 0.02684,-0.0972 0.04214,-0.223 0.04548,-0.37724 0.0067,-0.15424 0.0098,-0.30335 0.0098,-0.44752 v -1.4888 z m 8.867159,0 v 0.41238 h 1.005623 v 2.35386 h 0.452685 v -2.35386 h 1.006141 v -0.41238 z m 15.088484,0 v 0.41238 h 1.005624 v 2.35386 h 0.452685 v -2.35386 h 1.00614 v -0.41238 z m 9.23923,0 v 2.76624 h 0.452168 v -1.21181 h 1.187008 v 1.21181 h 0.452686 v -2.76624 h -0.452686 v 1.14205 h -1.187008 v -1.14205 z m 3.017386,0 v 2.76624 h 0.563274 l 1.151867,-2.32337 c -0.02679,0.0972 -0.0434,0.223 -0.05013,0.37724 -0.0035,0.15423 -0.0052,0.30515 -0.0052,0.45268 v 1.49345 h 0.432532 v -2.76624 h -0.563273 l -1.151868,2.31356 c 0.02671,-0.0972 0.04201,-0.223 0.04548,-0.37724 0.0067,-0.15424 0.0098,-0.30335 0.0098,-0.44752 v -1.4888 z m 3.017904,0 v 2.76624 h 2.001428 v 0.70435 h 0.40256 v -1.10639 h -0.377238 v -2.3642 H 75.8486 v 2.3642 h -1.121378 v -2.3642 z m -23.085412,0.3421 c 0.191121,0 0.340223,0.0503 0.447517,0.15089 0.107295,0.0972 0.161231,0.25983 0.161231,0.48783 v 0.8046 c 0,0.22465 -0.05394,0.38776 -0.161231,0.48834 -0.107294,0.1006 -0.256396,0.15038 -0.447517,0.15038 -0.184414,0 -0.332221,-0.0583 -0.442867,-0.1757 -0.107294,-0.11736 -0.160714,-0.27994 -0.160714,-0.48782 v -0.75448 c 0,-0.20788 0.05342,-0.37048 0.160714,-0.48782 0.110646,-0.11736 0.258453,-0.17622 0.442867,-0.17622 z m 12.070581,0 c 0.191117,0 0.340219,0.0503 0.447517,0.15089 0.107296,0.0972 0.161231,0.25983 0.161231,0.48783 v 0.8046 c 0,0.22465 -0.05393,0.38776 -0.161231,0.48834 -0.107298,0.1006 -0.2564,0.15038 -0.447517,0.15038 -0.184413,0 -0.331704,-0.0583 -0.442351,-0.1757 -0.107299,-0.11735 -0.16123,-0.27994 -0.16123,-0.48782 v -0.75448 c 0,-0.20788 0.05393,-0.37047 0.16123,-0.48782 0.110647,-0.11736 0.257938,-0.17622 0.442351,-0.17622 z m -15.098304,0.0202 c 0.197826,0 0.351853,0.0552 0.462504,0.16588 0.113998,0.11065 0.171049,0.27323 0.171049,0.48783 v 0.73432 c 0,0.21459 -0.05705,0.37718 -0.171049,0.48783 -0.110651,0.11065 -0.264678,0.1664 -0.462504,0.1664 -0.194468,0 -0.349017,-0.0557 -0.46302,-0.1664 -0.114002,-0.11065 -0.170533,-0.27324 -0.170533,-0.48783 v -0.73432 c 0,-0.2146 0.05653,-0.37718 0.170533,-0.48783 0.114003,-0.11064 0.268552,-0.16588 0.46302,-0.16588 z m -18.317228,1.08624 h 0.804602 v 0.38758 c 0,0.1844 -0.0656,0.32988 -0.19637,0.43718 -0.130767,0.10729 -0.306837,0.16123 -0.528133,0.16123 -0.181061,0 -0.323422,-0.0436 -0.427364,-0.13074 -0.100589,-0.0905 -0.150896,-0.21318 -0.150896,-0.36742 0,-0.14754 0.04538,-0.26474 0.135909,-0.35192 0.09388,-0.0905 0.214721,-0.13591 0.362252,-0.13591 z m 12.070581,0 h 0.804602 v 0.38758 c 0,0.1844 -0.06509,0.32988 -0.195853,0.43718 -0.130767,0.10729 -0.306836,0.16123 -0.528134,0.16123 -0.181056,0 -0.323936,-0.0436 -0.42788,-0.13074 -0.100591,-0.0905 -0.150896,-0.21318 -0.150896,-0.36742 0,-0.14754 0.04538,-0.26474 0.135909,-0.35192 0.09388,-0.0905 0.214722,-0.13591 0.362252,-0.13591 z m 24.141679,0 h 0.804602 v 0.38758 c 0,0.1844 -0.0656,0.3304 -0.19637,0.43769 -0.130767,0.1073 -0.30684,0.16072 -0.528133,0.16072 -0.181062,0 -0.323422,-0.0436 -0.427365,-0.13074 -0.100585,-0.0905 -0.150895,-0.21318 -0.150895,-0.36742 0,-0.14754 0.04538,-0.26474 0.135909,-0.35192 0.09388,-0.0905 0.214717,-0.13591 0.362252,-0.13591 z" /><path
           id="path51"
           style="font-size:6.83254px;font-family:'JetBrains Mono NL';-inkscape-font-specification:'JetBrains Mono NL, Normal';text-align:center;text-anchor:middle;fill:#ffffff;stroke-width:2.79591"
           d="m 23.717932,224.12057 -0.955497,3.67161 h 0.462504 l 0.241846,-0.97565 h 1.11156 l 0.241329,0.97565 h 0.457336 l -0.950329,-3.67161 z m 0.30179,0.36225 c 0.0067,0.0436 0.02512,0.13746 0.05529,0.28164 0.03018,0.14418 0.07244,0.32388 0.126091,0.53847 l 0.281636,1.13119 h -0.925525 l 0.281637,-1.13636 c 0.05365,-0.21123 0.0954,-0.38912 0.125574,-0.5333 0.03018,-0.14417 0.04859,-0.23804 0.05529,-0.28164 z m 6.040459,0.493 c -0.308475,0 -0.556374,0.0723 -0.744141,0.21652 -0.184412,0.14082 -0.285024,0.32 -0.30179,0.53795 h 0.452685 c 0.0067,-0.11398 0.06375,-0.20292 0.171049,-0.26665 0.107295,-0.0637 0.247841,-0.0956 0.422197,-0.0956 0.392297,0 0.588594,0.17918 0.588594,0.53795 v 0.21653 H 29.79353 c -0.177708,0 -0.335367,0.0368 -0.472839,0.11058 -0.137473,0.0704 -0.244309,0.16922 -0.321427,0.29663 -0.07712,0.12741 -0.115756,0.27651 -0.115756,0.44751 0,0.25818 0.0835,0.46796 0.251148,0.62891 0.167648,0.15759 0.394025,0.23667 0.679028,0.23667 0.238062,0 0.429432,-0.049 0.573608,-0.14624 0.144176,-0.10059 0.22949,-0.23621 0.256316,-0.40721 h 0.01034 v 0.50281 h 0.447518 V 225.891 c 0,-0.28834 -0.09076,-0.51292 -0.271818,-0.67386 -0.177708,-0.16094 -0.434166,-0.24132 -0.769462,-0.24132 z m 12.070581,0 c -0.308473,0 -0.556375,0.0723 -0.744141,0.21652 -0.184396,0.14082 -0.285004,0.32 -0.30179,0.53795 h 0.452685 c 0.0067,-0.11398 0.06376,-0.20292 0.171049,-0.26665 0.107295,-0.0637 0.247843,-0.0956 0.422197,-0.0956 0.392299,0 0.588594,0.17918 0.588594,0.53795 v 0.21653 h -0.854728 c -0.177711,0 -0.33537,0.0368 -0.472839,0.11058 -0.13747,0.0704 -0.244825,0.16922 -0.321944,0.29663 -0.07712,0.12741 -0.115756,0.27702 -0.115756,0.44803 0,0.25817 0.08401,0.46744 0.251665,0.62839 0.167645,0.15759 0.394023,0.23667 0.679028,0.23667 0.238061,0 0.428914,-0.049 0.573092,-0.14624 0.144162,-0.10059 0.229475,-0.23621 0.256315,-0.40721 h 0.01034 v 0.50281 h 0.447518 V 225.891 c 0,-0.28834 -0.09024,-0.51292 -0.271301,-0.67386 -0.177705,-0.16094 -0.434679,-0.24132 -0.769979,-0.24132 z m 9.209257,0 c -0.207887,0 -0.379029,0.0521 -0.513147,0.15606 -0.134131,0.10058 -0.212702,0.24113 -0.236162,0.42219 h -0.0052 v -0.52813 h -0.452686 v 3.67161 h 0.452686 v -0.8046 l -0.0098,-0.6289 h 0.01499 c 0.02347,0.17771 0.102043,0.31877 0.236162,0.42271 0.134118,0.10395 0.30526,0.15606 0.513147,0.15606 0.278296,0 0.499749,-0.0926 0.664042,-0.27698 0.164299,-0.18442 0.246496,-0.43594 0.246496,-0.75448 v -0.80977 c 0,-0.31854 -0.0822,-0.56825 -0.246496,-0.74931 -0.164293,-0.18441 -0.385746,-0.27646 -0.664042,-0.27646 z m 5.914367,0 c -0.335295,0 -0.603424,0.0939 -0.804602,0.28163 -0.201181,0.18776 -0.30179,0.44604 -0.30179,0.77463 v 0.75448 c 0,0.32859 0.100609,0.58686 0.30179,0.77463 0.201178,0.18777 0.469307,0.28163 0.804602,0.28163 0.318533,0 0.575505,-0.0858 0.769979,-0.25683 0.197826,-0.171 0.301549,-0.40411 0.311609,-0.69918 h -0.452685 c -0.01006,0.17436 -0.07022,0.31049 -0.180868,0.40773 -0.110647,0.0972 -0.260264,0.14572 -0.448035,0.14572 -0.197825,0 -0.356783,-0.057 -0.47749,-0.17104 -0.117355,-0.11401 -0.176216,-0.27478 -0.176216,-0.48266 v -0.75965 c 0,-0.20788 0.05886,-0.36684 0.176216,-0.47749 0.120707,-0.114 0.279665,-0.17105 0.47749,-0.17105 0.187771,0 0.337388,0.0485 0.448035,0.14573 0.110647,0.0939 0.170808,0.22951 0.180868,0.40721 h 0.452685 c -0.01006,-0.29506 -0.113783,-0.52818 -0.311609,-0.69918 -0.194474,-0.171 -0.451446,-0.25631 -0.769979,-0.25631 z m 6.156731,0 c -0.207885,0 -0.379029,0.0521 -0.513147,0.15606 -0.13413,0.10058 -0.213219,0.24113 -0.236678,0.42219 h -0.0052 v -0.52813 h -0.452686 v 3.67161 h 0.453203 v -0.8046 l -0.01034,-0.6289 h 0.01499 c 0.02347,0.1777 0.102555,0.31876 0.236678,0.42271 0.134118,0.10394 0.305262,0.15606 0.513147,0.15606 0.278296,0 0.499231,-0.0926 0.663525,-0.27698 0.164294,-0.18442 0.246497,-0.43594 0.246497,-0.75448 v -0.80977 c 0,-0.31853 -0.0822,-0.56825 -0.246497,-0.74931 -0.164294,-0.18441 -0.385229,-0.27646 -0.663525,-0.27646 z m 2.861324,0 c -0.308477,0 -0.556376,0.0718 -0.744141,0.216 -0.184398,0.14082 -0.28501,0.32052 -0.30179,0.53847 h 0.452685 c 0.0067,-0.11398 0.06375,-0.20292 0.171049,-0.26665 0.107295,-0.0637 0.247838,-0.0956 0.422197,-0.0956 0.392294,0 0.588594,0.1797 0.588594,0.53847 v 0.21601 H 66.00579 c -0.177706,0 -0.335364,0.0368 -0.472839,0.11058 -0.13747,0.0704 -0.244308,0.16922 -0.321428,0.29663 -0.07712,0.12742 -0.115755,0.27703 -0.115755,0.44803 0,0.25817 0.0835,0.46743 0.251148,0.62839 0.167649,0.15758 0.394028,0.23667 0.679028,0.23667 0.238062,0 0.429431,-0.049 0.573608,-0.14624 0.144155,-0.10059 0.22947,-0.23621 0.256316,-0.40721 h 0.01033 v 0.50281 h 0.447518 V 225.891 c 0,-0.28834 -0.09076,-0.51291 -0.271818,-0.67386 -0.177706,-0.16094 -0.434167,-0.24132 -0.769462,-0.24132 z m -18.11104,0.01 c -0.335294,0 -0.600309,0.0975 -0.794783,0.29198 -0.194474,0.19112 -0.291455,0.46287 -0.291455,0.81493 v 0.63356 c 0,0.34871 0.09698,0.62047 0.291455,0.81493 0.197826,0.19448 0.46284,0.29146 0.794783,0.29146 0.331945,0 0.595142,-0.097 0.789616,-0.29146 0.197826,-0.19446 0.296623,-0.46622 0.296623,-0.81493 v -0.63356 c 0,-0.35206 -0.09698,-0.62381 -0.291455,-0.81493 -0.194469,-0.19448 -0.459483,-0.29198 -0.794784,-0.29198 z m -9.204089,0.005 c -0.285003,0 -0.512677,0.0656 -0.683679,0.19637 -0.171002,0.12742 -0.259944,0.29985 -0.266651,0.5178 h 0.452686 c 0.0067,-0.0972 0.05338,-0.17451 0.14056,-0.23151 0.09053,-0.057 0.209553,-0.0853 0.357084,-0.0853 h 0.236678 c 0.157592,0 0.281544,0.035 0.37207,0.10542 0.09053,0.0671 0.135909,0.15964 0.135909,0.27699 0,0.12071 -0.04719,0.21587 -0.141076,0.28629 -0.09053,0.0704 -0.21448,0.10593 -0.372071,0.10593 h -0.588594 v 0.39223 h 0.603581 c 0.174353,0 0.311787,0.0404 0.412378,0.12092 0.100591,0.0771 0.150895,0.18395 0.150895,0.32143 0,0.13076 -0.0503,0.23501 -0.150895,0.31212 -0.100591,0.0738 -0.238025,0.11059 -0.412378,0.11059 h -0.266651 c -0.164296,0 -0.294987,-0.035 -0.392224,-0.10542 -0.09388,-0.0704 -0.14056,-0.16428 -0.14056,-0.28164 h -0.452685 c 0,0.24477 0.08843,0.43925 0.266133,0.58343 0.177708,0.14083 0.417569,0.21084 0.719336,0.21084 h 0.266651 c 0.318531,0 0.570063,-0.0736 0.754476,-0.22117 0.187765,-0.15089 0.281636,-0.35211 0.281636,-0.60359 0,-0.20116 -0.05523,-0.36558 -0.165881,-0.49299 -0.110646,-0.12742 -0.266489,-0.19744 -0.467672,-0.21084 v -0.0202 c 0.16765,-0.0134 0.303267,-0.0723 0.40721,-0.17622 0.107295,-0.10729 0.160714,-0.23798 0.160714,-0.39222 0,-0.23136 -0.08843,-0.40925 -0.266134,-0.5333 -0.174358,-0.12406 -0.412402,-0.18604 -0.714168,-0.18604 z m -12.966134,0.0351 v 2.76624 h 0.452686 v -1.21181 h 1.187008 v 1.21181 h 0.452685 v -2.76624 h -0.452685 v 1.14205 h -1.187008 v -1.14205 z m 6.226494,0 -0.02997,1.54926 c -0.0034,0.31183 -0.03706,0.52783 -0.100769,0.64854 -0.06035,0.12071 -0.167707,0.18138 -0.321944,0.18138 h -0.07493 v 0.4222 h 0.100253 c 0.295061,0 0.507954,-0.0952 0.63872,-0.28629 0.130765,-0.19112 0.201297,-0.50644 0.211357,-0.94568 l 0.02532,-1.15703 h 1.000456 v 2.35386 h 0.452686 v -2.76624 z m 2.826701,0 v 2.76624 h 0.563273 l 1.151867,-2.32337 c -0.02682,0.0972 -0.04342,0.223 -0.05013,0.37724 -0.0033,0.15423 -0.0052,0.30515 -0.0052,0.45268 v 1.49345 h 0.432531 v -2.76624 h -0.563273 l -1.151867,2.31356 c 0.02684,-0.0972 0.04214,-0.223 0.04548,-0.37724 0.0067,-0.15424 0.0098,-0.30335 0.0098,-0.44752 v -1.4888 z m 8.867159,0 v 0.41238 h 1.005623 v 2.35386 h 0.452685 v -2.35386 h 1.006141 v -0.41238 z m 15.088484,0 v 0.41238 h 1.005624 v 2.35386 h 0.452685 v -2.35386 h 1.00614 v -0.41238 z m 9.23923,0 v 2.76624 h 0.452168 v -1.21181 h 1.187008 v 1.21181 h 0.452686 v -2.76624 h -0.452686 v 1.14205 h -1.187008 v -1.14205 z m 3.017386,0 v 2.76624 h 0.563274 l 1.151867,-2.32337 c -0.02679,0.0972 -0.0434,0.223 -0.05013,0.37724 -0.0035,0.15423 -0.0052,0.30515 -0.0052,0.45268 v 1.49345 h 0.432532 v -2.76624 h -0.563273 l -1.151868,2.31356 c 0.02671,-0.0972 0.04201,-0.223 0.04548,-0.37724 0.0067,-0.15424 0.0098,-0.30335 0.0098,-0.44752 v -1.4888 z m 3.017904,0 v 2.76624 h 2.001428 v 0.70435 h 0.40256 v -1.10639 h -0.377238 v -2.3642 H 75.8486 v 2.3642 h -1.121378 v -2.3642 z m -23.085412,0.3421 c 0.191121,0 0.340223,0.0503 0.447517,0.15089 0.107295,0.0972 0.161231,0.25983 0.161231,0.48783 v 0.8046 c 0,0.22465 -0.05394,0.38776 -0.161231,0.48834 -0.107294,0.1006 -0.256396,0.15038 -0.447517,0.15038 -0.184414,0 -0.332221,-0.0583 -0.442867,-0.1757 -0.107294,-0.11736 -0.160714,-0.27994 -0.160714,-0.48782 v -0.75448 c 0,-0.20788 0.05342,-0.37048 0.160714,-0.48782 0.110646,-0.11736 0.258453,-0.17622 0.442867,-0.17622 z m 12.070581,0 c 0.191117,0 0.340219,0.0503 0.447517,0.15089 0.107296,0.0972 0.161231,0.25983 0.161231,0.48783 v 0.8046 c 0,0.22465 -0.05393,0.38776 -0.161231,0.48834 -0.107298,0.1006 -0.2564,0.15038 -0.447517,0.15038 -0.184413,0 -0.331704,-0.0583 -0.442351,-0.1757 -0.107299,-0.11735 -0.16123,-0.27994 -0.16123,-0.48782 v -0.75448 c 0,-0.20788 0.05393,-0.37047 0.16123,-0.48782 0.110647,-0.11736 0.257938,-0.17622 0.442351,-0.17622 z m -15.098304,0.0202 c 0.197826,0 0.351853,0.0552 0.462504,0.16588 0.113998,0.11065 0.171049,0.27323 0.171049,0.48783 v 0.73432 c 0,0.21459 -0.05705,0.37718 -0.171049,0.48783 -0.110651,0.11065 -0.264678,0.1664 -0.462504,0.1664 -0.194468,0 -0.349017,-0.0557 -0.46302,-0.1664 -0.114002,-0.11065 -0.170533,-0.27324 -0.170533,-0.48783 v -0.73432 c 0,-0.2146 0.05653,-0.37718 0.170533,-0.48783 0.114003,-0.11064 0.268552,-0.16588 0.46302,-0.16588 z m -18.317228,1.08624 h 0.804602 v 0.38758 c 0,0.1844 -0.0656,0.32988 -0.19637,0.43718 -0.130767,0.10729 -0.306837,0.16123 -0.528133,0.16123 -0.181061,0 -0.323422,-0.0436 -0.427364,-0.13074 -0.100589,-0.0905 -0.150896,-0.21318 -0.150896,-0.36742 0,-0.14754 0.04538,-0.26474 0.135909,-0.35192 0.09388,-0.0905 0.214721,-0.13591 0.362252,-0.13591 z m 12.070581,0 h 0.804602 v 0.38758 c 0,0.1844 -0.06509,0.32988 -0.195853,0.43718 -0.130767,0.10729 -0.306836,0.16123 -0.528134,0.16123 -0.181056,0 -0.323936,-0.0436 -0.42788,-0.13074 -0.100591,-0.0905 -0.150896,-0.21318 -0.150896,-0.36742 0,-0.14754 0.04538,-0.26474 0.135909,-0.35192 0.09388,-0.0905 0.214722,-0.13591 0.362252,-0.13591 z m 24.141679,0 h 0.804602 v 0.38758 c 0,0.1844 -0.0656,0.3304 -0.19637,0.43769 -0.130767,0.1073 -0.30684,0.16072 -0.528133,0.16072 -0.181062,0 -0.323422,-0.0436 -0.427365,-0.13074 -0.100585,-0.0905 -0.150895,-0.21318 -0.150895,-0.36742 0,-0.14754 0.04538,-0.26474 0.135909,-0.35192 0.09388,-0.0905 0.214717,-0.13591 0.362252,-0.13591 z" /><path
           id="path57"
           style="font-size:6.83254px;font-family:'JetBrains Mono NL';-inkscape-font-specification:'JetBrains Mono NL, Normal';text-align:center;text-anchor:middle;fill:#1e7d34;fill-opacity:1;stroke-width:2.79591"
           d="m 84.816012,223.82659 c -0.598953,0.0289 -1.087247,0.48102 -1.175123,1.06453 -0.0037,0.0289 -0.0093,0.0568 -0.01395,0.0848 -0.145691,0.77524 -0.824433,1.36219 -1.639177,1.36219 -0.290449,0 -0.562911,-0.0747 -0.800468,-0.20515 -0.02877,-0.0158 -0.06305,0.005 -0.06305,0.0372 v 0.16691 2.51302 H 83.6259 v -1.88412 c 0,-0.34662 0.280074,-0.62787 0.625285,-0.62787 h 0.625285 c 0.708035,0 1.277903,-0.58995 1.250053,-1.30741 -0.02505,-0.64572 -0.546513,-1.17279 -1.189592,-1.20354 v -5.2e-4 c -0.04083,-0.002 -0.08099,-0.002 -0.120922,0 z m 16.600538,0.68419 v 1.78439 c -0.21807,-0.28047 -0.5494,-0.46509 -1.04955,-0.46509 -0.837953,0 -1.478979,0.61609 -1.478979,1.52549 0,0.90849 0.641026,1.55598 1.478979,1.55598 0.50015,0 0.83148,-0.18462 1.04955,-0.46509 v 0.40359 h 0.60771 v -4.33927 z M 88.6349,224.6684 v 4.18165 h 0.644922 v -1.64279 h 1.040246 l 0.942062,1.64279 h 0.748791 l -1.009757,-1.73116 c 0.515011,-0.1817 0.843359,-0.60776 0.843359,-1.1808 0,-0.78269 -0.55821,-1.26969 -1.417484,-1.26969 z m 0.643888,0.58239 h 1.117245 c 0.51316,0 0.776696,0.27172 0.776696,0.6873 0,0.40626 -0.264462,0.6935 -0.776696,0.6935 h -1.117245 z m 4.37286,0.57929 c -0.892676,0 -1.521871,0.66273 -1.521871,1.54513 0,0.87772 0.654168,1.53737 1.544092,1.53737 0.521492,0 1.058884,-0.25897 1.331701,-0.75189 l -0.448551,-0.32711 c -0.220849,0.34755 -0.514771,0.50488 -0.88315,0.50488 -0.509459,0 -0.88737,-0.34867 -0.91519,-0.7922 h 2.286682 c 0.01762,-0.095 0.02429,-0.19099 0.02429,-0.28319 0,-0.79203 -0.558705,-1.43299 -1.418001,-1.43299 z m 3.497978,0 c -0.528001,0 -0.807012,0.28314 -0.905371,0.43409 v -0.37259 h -0.610816 v 2.95847 h 0.607715 v -1.66708 c 0,-0.49012 0.365183,-0.77308 0.813387,-0.77308 0.457461,0 0.724504,0.28296 0.724504,0.77308 v 1.66708 h 0.607714 v -1.79627 c 0,-0.71839 -0.427031,-1.2237 -1.237133,-1.2237 z m 6.911724,0 c -0.89363,0 -1.5228,0.66273 -1.52187,1.54513 0,0.87772 0.65419,1.53737 1.54409,1.53737 0.52152,0 1.05888,-0.25897 1.3317,-0.75189 l -0.44803,-0.32711 c -0.22085,0.34755 -0.51526,0.50488 -0.88367,0.50488 -0.50943,0 -0.88687,-0.34867 -0.91467,-0.7922 h 2.28616 c 0.0181,-0.095 0.0243,-0.19099 0.0243,-0.28319 0,-0.79203 -0.55873,-1.43299 -1.418,-1.43299 z m 3.38325,0 c -0.32211,0 -0.60122,0.14176 -0.76739,0.46509 v -0.40359 h -0.61082 v 2.95847 h 0.61185 v -1.61178 c 0,-0.66901 0.42302,-0.84181 0.74879,-0.84181 0.19298,0 0.32576,0.0561 0.35916,0.0682 l 0.0641,-0.56121 c 0,0 -0.17564,-0.0734 -0.40566,-0.0734 z m -7.00422,0.54881 c 0.56421,0 0.97255,0.4316 0.97255,0.97668 0,0.5451 -0.40463,1.00718 -0.97255,1.00718 -0.567909,0 -0.945678,-0.46208 -0.945678,-1.00718 0,-0.54601 0.377769,-0.9776 0.945678,-0.97668 z m -6.79545,0.002 c 0.42408,0 0.770056,0.29342 0.807186,0.709 h -1.678451 c 0.07609,-0.4165 0.420284,-0.709 0.871265,-0.709 z m 10.4097,0 c 0.42408,0 0.7706,0.29342 0.8077,0.709 h -1.67896 c 0.0761,-0.4165 0.42028,-0.709 0.87126,-0.709 z" /><path
           id="path52"
           style="font-size:6.83254px;font-family:'JetBrains Mono NL';-inkscape-font-specification:'JetBrains Mono NL, Normal';text-align:center;text-anchor:middle;fill:#ffffff;stroke-width:2.79591"
           d="m 84.816012,223.49024 c -0.598953,0.0289 -1.087247,0.48102 -1.175123,1.06453 -0.0037,0.0289 -0.0093,0.0568 -0.01395,0.0848 -0.145691,0.77524 -0.824433,1.36219 -1.639177,1.36219 -0.290449,0 -0.562911,-0.0747 -0.800468,-0.20515 -0.02877,-0.0158 -0.06305,0.005 -0.06305,0.0372 v 0.16691 2.51302 H 83.6259 v -1.88412 c 0,-0.34662 0.280074,-0.62787 0.625285,-0.62787 h 0.625285 c 0.708035,0 1.277903,-0.58995 1.250053,-1.30741 -0.02505,-0.64572 -0.546513,-1.17279 -1.189592,-1.20354 v -5.2e-4 c -0.04083,-0.002 -0.08099,-0.002 -0.120922,0 z m 16.600538,0.68419 v 1.78439 c -0.21807,-0.28047 -0.5494,-0.46509 -1.04955,-0.46509 -0.837953,0 -1.478979,0.61609 -1.478979,1.52549 0,0.90849 0.641026,1.55598 1.478979,1.55598 0.50015,0 0.83148,-0.18462 1.04955,-0.46509 v 0.40359 h 0.60771 v -4.33927 z m -12.78165,0.15762 v 4.18165 h 0.644922 v -1.64279 h 1.040246 l 0.942062,1.64279 h 0.748791 l -1.009757,-1.73116 c 0.515011,-0.1817 0.843359,-0.60776 0.843359,-1.1808 0,-0.78269 -0.55821,-1.26969 -1.417484,-1.26969 z m 0.643888,0.58239 h 1.117245 c 0.51316,0 0.776696,0.27172 0.776696,0.6873 0,0.40626 -0.264462,0.6935 -0.776696,0.6935 h -1.117245 z m 4.37286,0.57929 c -0.892676,0 -1.521871,0.66273 -1.521871,1.54513 0,0.87772 0.654168,1.53737 1.544092,1.53737 0.521492,0 1.058884,-0.25897 1.331701,-0.75189 l -0.448551,-0.32711 c -0.220849,0.34755 -0.514771,0.50488 -0.88315,0.50488 -0.509459,0 -0.88737,-0.34867 -0.91519,-0.7922 h 2.286682 c 0.01762,-0.095 0.02429,-0.19099 0.02429,-0.28319 0,-0.79203 -0.558705,-1.43299 -1.418001,-1.43299 z m 3.497978,0 c -0.528001,0 -0.807012,0.28314 -0.905371,0.43409 v -0.37259 h -0.610816 v 2.95847 h 0.607715 v -1.66708 c 0,-0.49012 0.365183,-0.77308 0.813387,-0.77308 0.457461,0 0.724504,0.28296 0.724504,0.77308 v 1.66708 h 0.607714 v -1.79627 c 0,-0.71839 -0.427031,-1.2237 -1.237133,-1.2237 z m 6.911724,0 c -0.89363,0 -1.5228,0.66273 -1.52187,1.54513 0,0.87772 0.65419,1.53737 1.54409,1.53737 0.52152,0 1.05888,-0.25897 1.3317,-0.75189 l -0.44803,-0.32711 c -0.22085,0.34755 -0.51526,0.50488 -0.88367,0.50488 -0.50943,0 -0.88687,-0.34867 -0.91467,-0.7922 h 2.28616 c 0.0181,-0.095 0.0243,-0.19099 0.0243,-0.28319 0,-0.79203 -0.55873,-1.43299 -1.418,-1.43299 z m 3.38325,0 c -0.32211,0 -0.60122,0.14176 -0.76739,0.46509 v -0.40359 h -0.61082 v 2.95847 h 0.61185 v -1.61178 c 0,-0.66901 0.42302,-0.84181 0.74879,-0.84181 0.19298,0 0.32576,0.0561 0.35916,0.0682 l 0.0641,-0.56121 c 0,0 -0.17564,-0.0734 -0.40566,-0.0734 z m -7.00422,0.54881 c 0.56421,0 0.97255,0.4316 0.97255,0.97668 0,0.5451 -0.40463,1.00718 -0.97255,1.00718 -0.567909,0 -0.945678,-0.46208 -0.945678,-1.00718 0,-0.54601 0.377769,-0.9776 0.945678,-0.97668 z m -6.79545,0.002 c 0.42408,0 0.770056,0.29342 0.807186,0.709 h -1.678451 c 0.07609,-0.4165 0.420284,-0.709 0.871265,-0.709 z m 10.4097,0 c 0.42408,0 0.7706,0.29342 0.8077,0.709 h -1.67896 c 0.0761,-0.4165 0.42028,-0.709 0.87126,-0.709 z" /></g></g></g></svg>
