<?xml version="1.0" encoding="UTF-8" standalone="no"?>
<!-- Created with Inkscape (http://www.inkscape.org/) -->

<svg
   width="82.934731mm"
   height="17.456572mm"
   viewBox="0 0 82.934731 17.456572"
   version="1.1"
   id="svg1"
   xml:space="preserve"
   inkscape:version="1.3.2 (091e20ef0f, 2023-11-25, custom)"
   sodipodi:docname="page_analyzer.svg"
   xmlns:inkscape="http://www.inkscape.org/namespaces/inkscape"
   xmlns:sodipodi="http://sodipodi.sourceforge.net/DTD/sodipodi-0.dtd"
   xmlns="http://www.w3.org/2000/svg"
   xmlns:svg="http://www.w3.org/2000/svg"><sodipodi:namedview
     id="namedview1"
     pagecolor="#ffffff"
     bordercolor="#000000"
     borderopacity="0.25"
     inkscape:showpageshadow="2"
     inkscape:pageopacity="0.0"
     inkscape:pagecheckerboard="0"
     inkscape:deskcolor="#d1d1d1"
     inkscape:document-units="mm"
     inkscape:zoom="3.6334257"
     inkscape:cx="137.19835"
     inkscape:cy="86.695043"
     inkscape:window-width="3836"
     inkscape:window-height="2116"
     inkscape:window-x="0"
     inkscape:window-y="0"
     inkscape:window-maximized="0"
     inkscape:current-layer="layer1" /><defs
     id="defs1"><filter
       inkscape:collect="always"
       style="color-interpolation-filters:sRGB"
       id="filter2"
       x="-0.030744898"
       y="-0.18985528"
       width="1.0614898"
       height="1.3797106"><feGaussianBlur
         inkscape:collect="always"
         stdDeviation="1.0008809"
         id="feGaussianBlur2" /></filter></defs><g
     inkscape:label="Layer 1"
     inkscape:groupmode="layer"
     id="layer1"
     transform="translate(-72.51365,-101.1761)"><g
       id="g4"><rect
         style="fill:#ffffff;fill-opacity:1;stroke-width:1.0454;filter:url(#filter2)"
         id="rect3"
         width="78.130501"
         height="12.652344"
         x="74.915764"
         y="103.57822"
         rx="1.5832993"
         ry="1.5832993" /><rect
         style="fill:#ffffff;fill-opacity:1;stroke-width:1.0454;filter:url(#filter2)"
         id="rect2"
         width="78.130501"
         height="12.652344"
         x="74.915764"
         y="103.57822"
         rx="1.5832993"
         ry="1.5832993" /><g
         id="g3"><rect
           style="fill:#212529;fill-opacity:1;stroke-width:1.0454"
           id="rect1"
           width="78.130501"
           height="12.652344"
           x="74.915764"
           y="103.57822"
           rx="1.5832993"
           ry="1.5832993" /><path
           d="m 77.358577,111.78334 1.298182,-4.98775 h 0.826738 l 1.29135,4.98775 h -0.621762 l -0.327961,-1.32551 h -1.509992 l -0.327962,1.32551 z m 1.079541,-1.84479 h 1.257187 l -0.382622,-1.53732 q -0.109321,-0.43728 -0.170813,-0.73108 -0.06149,-0.2938 -0.07516,-0.38262 -0.01367,0.0888 -0.07516,0.38262 -0.06149,0.2938 -0.170814,0.72425 z m 3.306952,1.84479 v -3.7579 h 0.614928 v 1.55099 h 1.61248 v -1.55099 h 0.614928 v 3.7579 h -0.614928 v -1.64664 h -1.61248 v 1.64664 z m 5.192732,0.0683 q -0.580765,0 -0.922392,-0.32113 -0.341627,-0.32797 -0.341627,-0.85407 0,-0.34846 0.157148,-0.6081 0.157148,-0.25963 0.437283,-0.40312 0.280134,-0.15031 0.642258,-0.15031 h 1.161532 v -0.2938 q 0,-0.73108 -0.799407,-0.73108 -0.355292,0 -0.573933,0.12981 -0.218642,0.12982 -0.232307,0.36213 h -0.614928 q 0.03416,-0.44412 0.409952,-0.73108 0.382622,-0.2938 1.011216,-0.2938 0.683254,0 1.045379,0.32796 0.368957,0.32796 0.368957,0.91556 v 2.5827 h -0.608096 v -0.68325 h -0.01366 q -0.05466,0.34846 -0.34846,0.55343 -0.293799,0.19815 -0.77891,0.19815 z m 0.150316,-0.51928 q 0.450948,0 0.717417,-0.21864 0.266469,-0.21864 0.266469,-0.59443 v -0.52611 h -1.093206 q -0.300632,0 -0.491943,0.18448 -0.184479,0.17765 -0.184479,0.47828 0,0.3143 0.204976,0.49878 0.211809,0.17764 0.580766,0.17764 z m 2.398224,0.49878 v -0.57394 h 0.102488 q 0.314297,0 0.437283,-0.24597 0.129818,-0.24597 0.136651,-0.88139 l 0.041,-2.10443 h 2.5827 v 3.7579 h -0.614928 v -3.19763 H 90.81186 l -0.03416,1.57149 q -0.0205,0.89506 -0.286966,1.28451 -0.266469,0.38946 -0.867733,0.38946 z m 4.557307,-0.0478 v -3.7579 h 0.587598 v 2.02244 q 0,0.29379 -0.01367,0.60809 -0.0068,0.3143 -0.06149,0.51244 l 1.564652,-3.14297 h 0.765245 v 3.7579 h -0.587599 v -2.02926 q 0,-0.30064 0.0068,-0.61493 0.01366,-0.3143 0.06832,-0.51244 l -1.564652,3.15663 z m 5.288387,0.0478 q -0.614928,0 -0.977053,-0.28697 -0.362125,-0.2938 -0.362125,-0.79257 h 0.614929 q 0,0.23914 0.191311,0.38262 0.198144,0.14348 0.532938,0.14348 h 0.362125 q 0.355289,0 0.560269,-0.15031 0.20498,-0.15715 0.20498,-0.42362 0,-0.28014 -0.20498,-0.43728 -0.20498,-0.16398 -0.560269,-0.16398 h -0.819905 v -0.53294 h 0.799407 q 0.32113,0 0.505607,-0.14349 0.19131,-0.14348 0.19131,-0.38945 0,-0.23914 -0.18448,-0.37579 -0.18447,-0.14348 -0.505604,-0.14348 h -0.32113 q -0.300631,0 -0.48511,0.11615 -0.177646,0.11615 -0.191311,0.3143 h -0.614929 q 0.01367,-0.44412 0.362125,-0.70376 0.34846,-0.26646 0.929225,-0.26646 h 0.32113 q 0.614924,0 0.970224,0.2528 0.36212,0.2528 0.36212,0.72425 0,0.3143 -0.21864,0.53294 -0.21181,0.21181 -0.55344,0.23914 v 0.0273 q 0.40996,0.0273 0.63543,0.28696 0.22547,0.25964 0.22547,0.66959 0,0.51244 -0.38262,0.81991 -0.37579,0.30063 -1.024879,0.30063 z m 4.003874,0.0205 q -0.58077,0 -0.92239,-0.32113 -0.34163,-0.32797 -0.34163,-0.85407 0,-0.34846 0.15715,-0.6081 0.15715,-0.25963 0.43728,-0.40312 0.28013,-0.15031 0.64226,-0.15031 h 1.16153 v -0.2938 q 0,-0.73108 -0.79941,-0.73108 -0.35529,0 -0.57393,0.12981 -0.21864,0.12982 -0.23231,0.36213 h -0.61493 q 0.0342,-0.44412 0.40996,-0.73108 0.38262,-0.2938 1.01121,-0.2938 0.68326,0 1.04538,0.32796 0.36896,0.32796 0.36896,0.91556 v 2.5827 h -0.6081 v -0.68325 h -0.0137 q -0.0547,0.34846 -0.34846,0.55343 -0.2938,0.19815 -0.77891,0.19815 z m 0.15031,-0.51928 q 0.45095,0 0.71742,-0.21864 0.26647,-0.21864 0.26647,-0.59443 v -0.52611 h -1.09321 q -0.30063,0 -0.49194,0.18448 -0.18448,0.17765 -0.18448,0.47828 0,0.3143 0.20498,0.49878 0.21181,0.17764 0.58076,0.17764 z m 3.96971,0.45095 v -3.19763 h -1.3665 v -0.56027 h 3.34794 v 0.56027 h -1.36651 v 3.19763 z m 4.40699,0.0547 q -0.67642,0 -1.07954,-0.39629 -0.39629,-0.39628 -0.39629,-1.10687 v -0.8609 q 0,-0.71741 0.39629,-1.10687 0.39629,-0.39629 1.07954,-0.39629 0.68326,0 1.07954,0.39629 0.39629,0.38946 0.39629,1.10687 v 0.8609 q 0,0.71059 -0.40312,1.10687 -0.39629,0.39629 -1.07271,0.39629 z m 0,-0.5466 q 0.40312,0 0.6286,-0.22548 0.2323,-0.22547 0.2323,-0.66275 v -0.99755 q 0,-0.43729 -0.2323,-0.66276 -0.22548,-0.22547 -0.6286,-0.22547 -0.39628,0 -0.62859,0.22547 -0.23231,0.22547 -0.23231,0.66276 v 0.99755 q 0,0.43728 0.23231,0.66275 0.23231,0.22548 0.62859,0.22548 z m 2.67836,1.7218 v -4.98776 h 0.61493 v 0.71742 h 0.007 q 0.0478,-0.36896 0.32113,-0.57393 0.2733,-0.21181 0.69692,-0.21181 0.5671,0 0.90189,0.37579 0.3348,0.36895 0.3348,1.01805 v 1.10004 q 0,0.64909 -0.3348,1.02488 -0.33479,0.37579 -0.90189,0.37579 -0.42362,0 -0.69692,-0.21181 -0.2733,-0.21181 -0.32113,-0.57394 h -0.0205 l 0.0137,0.85407 v 1.09321 z m 1.43483,-1.69447 q 0.38946,0 0.6081,-0.20498 0.21864,-0.20497 0.21864,-0.66275 v -1.09321 q 0,-0.46461 -0.21864,-0.66276 -0.21864,-0.20497 -0.6081,-0.20497 -0.37579,0 -0.60126,0.23914 -0.21864,0.23913 -0.21864,0.66275 v 1.02488 q 0,0.42362 0.21864,0.66276 0.22547,0.23914 0.60126,0.23914 z m 8.24005,0.53294 q -0.68325,0 -1.0932,-0.38263 -0.40996,-0.38262 -0.40996,-1.05221 v -1.02488 q 0,-0.66959 0.40996,-1.05221 0.40995,-0.38262 1.0932,-0.38262 0.64909,0 1.04538,0.34846 0.40312,0.34846 0.42362,0.94972 h -0.61493 q -0.0205,-0.36212 -0.24597,-0.55344 -0.22547,-0.19814 -0.6081,-0.19814 -0.40312,0 -0.64909,0.23231 -0.23914,0.22547 -0.23914,0.64909 v 1.03171 q 0,0.42362 0.23914,0.65593 0.24597,0.2323 0.64909,0.2323 0.38263,0 0.6081,-0.19814 0.22547,-0.19814 0.24597,-0.55344 h 0.61493 q -0.0205,0.60127 -0.42362,0.94973 -0.39629,0.34846 -1.04538,0.34846 z m 3.7374,-0.0683 v -3.19763 h -1.3665 v -0.56027 h 3.34794 v 0.56027 h -1.36651 v 3.19763 z m 2.98583,1.22986 v -4.98776 h 0.61492 v 0.71742 h 0.007 q 0.0478,-0.36896 0.32113,-0.57393 0.2733,-0.21181 0.69692,-0.21181 0.5671,0 0.90189,0.37579 0.33479,0.36895 0.33479,1.01805 v 1.10004 q 0,0.64909 -0.33479,1.02488 -0.33479,0.37579 -0.90189,0.37579 -0.42362,0 -0.69692,-0.21181 -0.27331,-0.21181 -0.32113,-0.57394 h -0.0205 l 0.0137,0.85407 v 1.09321 z m 1.43483,-1.69447 q 0.38945,0 0.6081,-0.20498 0.21864,-0.20497 0.21864,-0.66275 v -1.09321 q 0,-0.46461 -0.21864,-0.66276 -0.21865,-0.20497 -0.6081,-0.20497 -0.37579,0 -0.60126,0.23914 -0.21865,0.23913 -0.21865,0.66275 v 1.02488 q 0,0.42362 0.21865,0.66276 0.22547,0.23914 0.60126,0.23914 z m 3.7579,0.53294 q -0.58076,0 -0.92239,-0.32113 -0.34163,-0.32797 -0.34163,-0.85407 0,-0.34846 0.15715,-0.6081 0.15715,-0.25963 0.43728,-0.40312 0.28014,-0.15031 0.64226,-0.15031 h 1.16153 v -0.2938 q 0,-0.73108 -0.7994,-0.73108 -0.3553,0 -0.57394,0.12981 -0.21864,0.12982 -0.2323,0.36213 h -0.61493 q 0.0342,-0.44412 0.40995,-0.73108 0.38262,-0.2938 1.01122,-0.2938 0.68325,0 1.04537,0.32796 0.36896,0.32796 0.36896,0.91556 v 2.5827 h -0.60809 v -0.68325 h -0.0137 q -0.0547,0.34846 -0.34846,0.55343 -0.2938,0.19815 -0.77891,0.19815 z m 0.15032,-0.51928 q 0.45094,0 0.71741,-0.21864 0.26647,-0.21864 0.26647,-0.59443 v -0.52611 h -1.0932 q -0.30064,0 -0.49195,0.18448 -0.18447,0.17765 -0.18447,0.47828 0,0.3143 0.20497,0.49878 0.21181,0.17764 0.58077,0.17764 z m 2.856,0.45095 v -3.7579 h 0.61493 v 1.55099 h 1.61248 v -1.55099 h 0.61493 v 3.7579 h -0.61493 v -1.64664 h -1.61248 v 1.64664 z m 4.09953,0 v -3.7579 h 0.58759 v 2.02244 q 0,0.29379 -0.0137,0.60809 -0.007,0.3143 -0.0615,0.51244 l 1.56465,-3.14297 h 0.76524 v 3.7579 h -0.5876 v -2.02926 q 0,-0.30064 0.007,-0.61493 0.0137,-0.3143 0.0683,-0.51244 l -1.56465,3.15663 z m 6.81887,0.95656 v -0.95656 h -2.71935 v -3.7579 h 0.61493 v 3.2113 h 1.52366 v -3.2113 h 0.61492 v 3.2113 h 0.51245 v 1.50316 z"
           id="text1"
           style="font-size:6.83254px;font-family:'JetBrains Mono NL';-inkscape-font-specification:'JetBrains Mono NL, Normal';text-align:center;text-anchor:middle;fill:#ffffff;stroke-width:3.79825"
           aria-label="Анализатор страниц" /></g></g></g></svg>
